<?xml version="1.0"?>
<svg xmlns="http://www.w3.org/2000/svg" id="Layer_1" height="512px" viewBox="0 0 128 128" width="512px" data-name="Layer 1"><g><path d="m121.5 13.6h-115a1.751 1.751 0 0 0 -1.75 1.75v97.308a1.751 1.751 0 0 0 1.75 1.742h115a1.751 1.751 0 0 0 1.75-1.75v-97.304a1.751 1.751 0 0 0 -1.75-1.746zm-113.25 3.5h111.5v10.637h-111.5zm0 93.808v-79.671h111.5v79.663z" data-original="#000000" class="active-path" data-old_color="#000000" fill="#5187FF"/><path d="m82.958 19.393a3.024 3.024 0 1 0 3.024 3.024 3.024 3.024 0 0 0 -3.024-3.024z" data-original="#000000" class="active-path" data-old_color="#000000" fill="#5187FF"/><path d="m94.792 19.393a3.024 3.024 0 1 0 3.023 3.024 3.024 3.024 0 0 0 -3.023-3.024z" data-original="#000000" class="active-path" data-old_color="#000000" fill="#5187FF"/><path d="m106.625 19.393a3.024 3.024 0 1 0 3.023 3.024 3.023 3.023 0 0 0 -3.023-3.024z" data-original="#000000" class="active-path" data-old_color="#000000" fill="#5187FF"/><path d="m52.326 57.245a1.748 1.748 0 0 0 -2.474 0l-12.589 12.588a1.749 1.749 0 0 0 0 2.475l12.589 12.592a1.749 1.749 0 0 0 2.474-2.474l-11.351-11.356 11.351-11.351a1.748 1.748 0 0 0 0-2.474z" data-original="#000000" class="active-path" data-old_color="#000000" fill="#5187FF"/><path d="m78.148 57.245a1.749 1.749 0 0 0 -2.474 2.474l11.351 11.351-11.351 11.352a1.749 1.749 0 1 0 2.474 2.478l12.589-12.592a1.749 1.749 0 0 0 0-2.475z" data-original="#000000" class="active-path" data-old_color="#000000" fill="#5187FF"/><path d="m70.829 46.327a1.754 1.754 0 0 0 -2.153 1.222l-12.726 46.113a1.75 1.75 0 1 0 3.374.93l12.726-46.113a1.749 1.749 0 0 0 -1.221-2.152z" data-original="#000000" class="active-path" data-old_color="#000000" fill="#5187FF"/></g> </svg>
